<svg width="48" height="48" viewBox="0 0 48 48" fill="none" xmlns="http://www.w3.org/2000/svg">
<path d="M3 30V20L15 28V18" stroke="url(#paint0_linear_2_2)" stroke-width="2.5"/>
<path d="M32 24C31 22.3333 28 19 24 19C20 19 19 22.3333 19 24C19 25.6667 20 29 24 29C28 29 31 25.6667 32 24ZM32 24C33 25.6667 36 29 40 29C44 29 45 25.6667 45 24C45 22.3333 44 19 40 19C36 19 33 22.3333 32 24Z" stroke="url(#paint1_linear_2_2)" stroke-width="2.5"/>
<defs>
<linearGradient id="paint0_linear_2_2" x1="3" y1="20" x2="15" y2="28" gradientUnits="userSpaceOnUse">
<stop stop-color="#5D0EC0"/>
<stop offset="1" stop-color="#C70036"/>
</linearGradient>
<linearGradient id="paint1_linear_2_2" x1="40" y1="29" x2="24" y2="19" gradientUnits="userSpaceOnUse">
<stop stop-color="#5D0EC0"/>
<stop offset="1" stop-color="#C70036"/>
</linearGradient>
</defs>
</svg>
